<?xml version="1.0" encoding="UTF-8" standalone="no"?>
<!DOCTYPE svg PUBLIC "-//W3C//DTD SVG 1.1//EN" "http://www.w3.org/Graphics/SVG/1.1/DTD/svg11.dtd">
<svg width="100%" height="100%" viewBox="0 0 639 639" version="1.1" xmlns="http://www.w3.org/2000/svg" xmlns:xlink="http://www.w3.org/1999/xlink" xml:space="preserve" xmlns:serif="http://www.serif.com/" style="fill-rule:evenodd;clip-rule:evenodd;stroke-linejoin:round;stroke-miterlimit:2;">
    <g transform="matrix(4.75496,0,0,6.98928,-45.7142,-314.512)">
        <rect x="9.614" y="44.999" width="134.386" height="91.426" style="fill:rgb(20,25,21);"/>
    </g>
    <g transform="matrix(42.8922,0,0,42.8922,-3682.12,-9146.66)">
        <path d="M93.295,222.737C93.159,222.737 93.045,222.689 92.953,222.593C92.861,222.497 92.815,222.381 92.815,222.245L92.815,219.149C92.815,219.013 92.861,218.897 92.953,218.801C93.045,218.705 93.159,218.657 93.295,218.657C93.431,218.657 93.545,218.705 93.637,218.801C93.729,218.897 93.775,219.013 93.775,219.149L93.775,222.245C93.775,222.381 93.729,222.497 93.637,222.593C93.545,222.689 93.431,222.737 93.295,222.737ZM91.747,221.177C91.611,221.177 91.495,221.131 91.399,221.039C91.303,220.947 91.255,220.833 91.255,220.697C91.255,220.561 91.303,220.447 91.399,220.355C91.495,220.263 91.611,220.217 91.747,220.217L94.843,220.217C94.979,220.217 95.095,220.263 95.191,220.355C95.287,220.447 95.335,220.561 95.335,220.697C95.335,220.833 95.287,220.947 95.191,221.039C95.095,221.131 94.979,221.177 94.843,221.177L91.747,221.177Z" style="fill:rgb(172,230,142);fill-rule:nonzero;"/>
    </g>
</svg>
